<svg xmlns="http://www.w3.org/2000/svg" viewBox="0 0 131.1 100.0" role="img" aria-label="AI Resulting"><g><clipPath id="k00100"><rect x="0" y="0" width="100" height="100" rx="15.0"/></clipPath>
<g clip-path="url(#k00100)"><rect x="0" y="0" width="100" height="100" fill="#DCD5C8"/>
<polygon points="0.00,0.00 100.00,0.00 91.00,6.00 9.00,6.00" fill="#EEEAE2"/>
<polygon points="0.00,0.00 9.00,6.00 9.00,84.00 0.00,100.00" fill="#E6E0D5"/>
<polygon points="100.00,0.00 100.00,100.00 91.00,84.00 91.00,6.00" fill="#CFC7B8"/>
<polygon points="0.00,100.00 9.00,84.00 91.00,84.00 100.00,100.00" fill="#C4BBAA"/></g>
<rect x="9.0" y="6.0" width="82.0" height="78.0" rx="10.0" fill="#F6F3EE"/>
<path d="M32.18000000000001 59.0 42.42000000000001 31.0H48.540000000000006L58.74000000000001 59.0H53.02000000000001L45.46000000000001 37.16L37.86000000000001 59.0ZM36.70000000000001 52.64 38.14000000000001 48.44H52.38000000000001L53.78000000000001 52.64ZM62.42000000000001 59.0V31.0H67.82000000000001V59.0Z" fill="#B98232"/></g><rect x="0.5" y="0.5" width="99" height="99" rx="15.0" fill="none" stroke="#12141726"/><path d="M112.0 27.8V4.0H120.53399999999999Q123.356 4.0 125.209 4.968999999999999Q127.062 5.937999999999999 127.963 7.552999999999999Q128.864 9.168 128.864 11.207999999999998Q128.864 13.112 127.98 14.744Q127.096 16.375999999999998 125.226 17.362Q123.356 18.348 120.432 18.348H116.08V27.8ZM124.41 27.8 119.412 17.294H123.832L129.068 27.8ZM116.08 15.322H120.262Q122.53999999999999 15.322 123.61099999999999 14.216999999999999Q124.682 13.112 124.682 11.309999999999999Q124.682 9.541999999999998 123.628 8.470999999999998Q122.574 7.399999999999999 120.262 7.399999999999999H116.08Z" fill="#121417"/></svg>